<svg xmlns="http://www.w3.org/2000/svg" xmlns:xlink="http://www.w3.org/1999/xlink" width="780" zoomAndPan="magnify" viewBox="0 0 585 56.249996" height="75" preserveAspectRatio="xMidYMid meet" version="1.0"><defs><g/><clipPath id="a30a30182b"><path d="M 3.847656 0 L 581.148438 0 L 581.148438 55.511719 L 3.847656 55.511719 Z M 3.847656 0 " clip-rule="nonzero"/></clipPath></defs><g clip-path="url(#a30a30182b)"><path fill="#ffffff" d="M 3.847656 0 L 581.152344 0 L 581.152344 55.511719 L 3.847656 55.511719 Z M 3.847656 0 " fill-opacity="1" fill-rule="nonzero"/><path fill="#000000" d="M 3.847656 0 L 581.152344 0 L 581.152344 55.511719 L 3.847656 55.511719 Z M 3.847656 0 " fill-opacity="1" fill-rule="nonzero"/></g><g fill="#ffffff" fill-opacity="1"><g transform="translate(19.457661, 20.384484)"><g><path d="M 1.65625 0 L 1.65625 -15.484375 L 5.0625 -15.484375 L 5.0625 0 Z M 1.65625 0 "/></g></g></g><g fill="#ffffff" fill-opacity="1"><g transform="translate(30.277613, 20.384484)"><g><path d="M 15.03125 -15.484375 L 18.6875 -15.484375 L 18.6875 0 L 15.28125 0 L 15.28125 -9.21875 L 11.078125 0 L 9.109375 0 L 4.9375 -9.25 L 4.9375 0 L 1.515625 0 L 1.515625 -15.484375 L 5.21875 -15.484375 L 10.09375 -4.78125 Z M 15.03125 -15.484375 "/></g></g></g><g fill="#ffffff" fill-opacity="1"><g transform="translate(54.628883, 20.384484)"><g><path d="M 15.03125 -15.484375 L 18.6875 -15.484375 L 18.6875 0 L 15.28125 0 L 15.28125 -9.21875 L 11.078125 0 L 9.109375 0 L 4.9375 -9.25 L 4.9375 0 L 1.515625 0 L 1.515625 -15.484375 L 5.21875 -15.484375 L 10.09375 -4.78125 Z M 15.03125 -15.484375 "/></g></g></g><g fill="#ffffff" fill-opacity="1"><g transform="translate(78.980152, 20.384484)"><g><path d="M 10.96875 -12.5 L 5.0625 -12.5 L 5.0625 -9.25 L 10.125 -9.25 L 10.125 -6.25 L 5.0625 -6.25 L 5.0625 -3 L 10.96875 -3 L 10.96875 0 L 1.65625 0 L 1.65625 -15.484375 L 10.96875 -15.484375 Z M 10.96875 -12.5 "/></g></g></g><g fill="#ffffff" fill-opacity="1"><g transform="translate(95.145491, 20.384484)"><g><path d="M 9.609375 -6.375 L 13.9375 0 L 10.125 0 L 6.296875 -5.984375 L 4.9375 -5.984375 L 4.9375 0 L 1.515625 0 L 1.515625 -15.484375 L 8.109375 -15.484375 C 9.003906 -15.484375 9.796875 -15.273438 10.484375 -14.859375 C 11.171875 -14.441406 11.71875 -13.867188 12.125 -13.140625 C 12.53125 -12.421875 12.734375 -11.617188 12.734375 -10.734375 C 12.734375 -9.691406 12.4375 -8.773438 11.84375 -7.984375 C 11.257812 -7.191406 10.515625 -6.65625 9.609375 -6.375 Z M 7.59375 -8.8125 C 8.144531 -8.8125 8.59375 -8.984375 8.9375 -9.328125 C 9.289062 -9.671875 9.46875 -10.109375 9.46875 -10.640625 C 9.46875 -11.171875 9.289062 -11.609375 8.9375 -11.953125 C 8.59375 -12.296875 8.144531 -12.46875 7.59375 -12.46875 L 4.9375 -12.46875 L 4.9375 -8.8125 Z M 7.59375 -8.8125 "/></g></g></g><g fill="#ffffff" fill-opacity="1"><g transform="translate(113.092622, 20.384484)"><g><path d="M 6.296875 0.203125 C 4.941406 0.203125 3.742188 -0.128906 2.703125 -0.796875 C 1.671875 -1.472656 0.90625 -2.289062 0.40625 -3.25 L 3.234375 -5.015625 C 3.523438 -4.410156 3.9375 -3.921875 4.46875 -3.546875 C 5 -3.179688 5.617188 -3 6.328125 -3 C 6.929688 -3 7.398438 -3.125 7.734375 -3.375 C 8.066406 -3.632812 8.234375 -3.984375 8.234375 -4.421875 C 8.234375 -4.867188 8.0625 -5.226562 7.71875 -5.5 C 7.375 -5.769531 6.929688 -6 6.390625 -6.1875 C 5.847656 -6.382812 5.269531 -6.585938 4.65625 -6.796875 C 4.050781 -7.015625 3.476562 -7.296875 2.9375 -7.640625 C 2.394531 -7.984375 1.945312 -8.429688 1.59375 -8.984375 C 1.25 -9.535156 1.078125 -10.25 1.078125 -11.125 C 1.078125 -12.15625 1.316406 -13.003906 1.796875 -13.671875 C 2.285156 -14.347656 2.910156 -14.851562 3.671875 -15.1875 C 4.441406 -15.53125 5.234375 -15.703125 6.046875 -15.703125 C 7.003906 -15.703125 7.894531 -15.5 8.71875 -15.09375 C 9.550781 -14.6875 10.25 -14.15625 10.8125 -13.5 L 8.546875 -11.328125 C 8.171875 -11.765625 7.765625 -12.097656 7.328125 -12.328125 C 6.898438 -12.554688 6.460938 -12.671875 6.015625 -12.671875 C 5.597656 -12.671875 5.242188 -12.566406 4.953125 -12.359375 C 4.660156 -12.160156 4.515625 -11.835938 4.515625 -11.390625 C 4.515625 -10.941406 4.6875 -10.585938 5.03125 -10.328125 C 5.375 -10.066406 5.816406 -9.84375 6.359375 -9.65625 C 6.898438 -9.46875 7.472656 -9.257812 8.078125 -9.03125 C 8.679688 -8.8125 9.253906 -8.519531 9.796875 -8.15625 C 10.335938 -7.789062 10.78125 -7.3125 11.125 -6.71875 C 11.46875 -6.125 11.640625 -5.347656 11.640625 -4.390625 C 11.640625 -3.421875 11.394531 -2.59375 10.90625 -1.90625 C 10.414062 -1.21875 9.765625 -0.691406 8.953125 -0.328125 C 8.148438 0.0234375 7.265625 0.203125 6.296875 0.203125 Z M 6.296875 0.203125 "/></g></g></g><g fill="#ffffff" fill-opacity="1"><g transform="translate(129.464544, 20.384484)"><g><path d="M 10.96875 -12.5 L 5.0625 -12.5 L 5.0625 -9.25 L 10.125 -9.25 L 10.125 -6.25 L 5.0625 -6.25 L 5.0625 -3 L 10.96875 -3 L 10.96875 0 L 1.65625 0 L 1.65625 -15.484375 L 10.96875 -15.484375 Z M 10.96875 -12.5 "/></g></g></g><g fill="#ffffff" fill-opacity="1"><g transform="translate(145.629883, 20.384484)"><g/></g></g><g fill="#ffffff" fill-opacity="1"><g transform="translate(155.959194, 20.384484)"><g><path d="M 13.921875 -15.484375 L 8.515625 -7.3125 L 8.515625 0 L 5.109375 0 L 5.109375 -7.28125 L -0.328125 -15.484375 L 3.515625 -15.484375 L 6.8125 -10.25 L 10.125 -15.484375 Z M 13.921875 -15.484375 "/></g></g></g><g fill="#ffffff" fill-opacity="1"><g transform="translate(173.699741, 20.384484)"><g><path d="M 8.90625 0.203125 C 7.800781 0.203125 6.769531 0 5.8125 -0.40625 C 4.863281 -0.820312 4.019531 -1.394531 3.28125 -2.125 C 2.550781 -2.863281 1.976562 -3.707031 1.5625 -4.65625 C 1.15625 -5.613281 0.953125 -6.644531 0.953125 -7.75 C 0.953125 -8.851562 1.15625 -9.878906 1.5625 -10.828125 C 1.976562 -11.785156 2.550781 -12.628906 3.28125 -13.359375 C 4.019531 -14.085938 4.863281 -14.660156 5.8125 -15.078125 C 6.769531 -15.492188 7.800781 -15.703125 8.90625 -15.703125 C 10.007812 -15.703125 11.039062 -15.492188 12 -15.078125 C 12.96875 -14.660156 13.8125 -14.085938 14.53125 -13.359375 C 15.257812 -12.628906 15.828125 -11.785156 16.234375 -10.828125 C 16.648438 -9.878906 16.859375 -8.851562 16.859375 -7.75 C 16.859375 -6.644531 16.648438 -5.613281 16.234375 -4.65625 C 15.828125 -3.707031 15.257812 -2.863281 14.53125 -2.125 C 13.8125 -1.394531 12.96875 -0.820312 12 -0.40625 C 11.039062 0 10.007812 0.203125 8.90625 0.203125 Z M 8.90625 -3.125 C 9.78125 -3.125 10.566406 -3.328125 11.265625 -3.734375 C 11.960938 -4.140625 12.515625 -4.6875 12.921875 -5.375 C 13.328125 -6.070312 13.53125 -6.863281 13.53125 -7.75 C 13.53125 -8.625 13.328125 -9.410156 12.921875 -10.109375 C 12.515625 -10.804688 11.960938 -11.359375 11.265625 -11.765625 C 10.566406 -12.171875 9.78125 -12.375 8.90625 -12.375 C 8.039062 -12.375 7.257812 -12.171875 6.5625 -11.765625 C 5.875 -11.359375 5.328125 -10.804688 4.921875 -10.109375 C 4.515625 -9.410156 4.3125 -8.625 4.3125 -7.75 C 4.3125 -6.863281 4.515625 -6.070312 4.921875 -5.375 C 5.328125 -4.6875 5.875 -4.140625 6.5625 -3.734375 C 7.257812 -3.328125 8.039062 -3.125 8.90625 -3.125 Z M 8.90625 -3.125 "/></g></g></g><g fill="#ffffff" fill-opacity="1"><g transform="translate(195.675285, 20.384484)"><g><path d="M 7.875 0.203125 C 6.664062 0.203125 5.578125 -0.0195312 4.609375 -0.46875 C 3.640625 -0.925781 2.867188 -1.546875 2.296875 -2.328125 C 1.734375 -3.117188 1.453125 -3.992188 1.453125 -4.953125 L 1.453125 -15.484375 L 4.859375 -15.484375 L 4.859375 -5.609375 C 4.859375 -4.816406 5.148438 -4.148438 5.734375 -3.609375 C 6.316406 -3.078125 7.03125 -2.8125 7.875 -2.8125 C 8.738281 -2.8125 9.460938 -3.078125 10.046875 -3.609375 C 10.628906 -4.148438 10.921875 -4.816406 10.921875 -5.609375 L 10.921875 -15.484375 L 14.328125 -15.484375 L 14.328125 -4.953125 C 14.328125 -3.992188 14.039062 -3.117188 13.46875 -2.328125 C 12.90625 -1.546875 12.132812 -0.925781 11.15625 -0.46875 C 10.1875 -0.0195312 9.09375 0.203125 7.875 0.203125 Z M 7.875 0.203125 "/></g></g></g><g fill="#ffffff" fill-opacity="1"><g transform="translate(215.584976, 20.384484)"><g><path d="M 9.609375 -6.375 L 13.9375 0 L 10.125 0 L 6.296875 -5.984375 L 4.9375 -5.984375 L 4.9375 0 L 1.515625 0 L 1.515625 -15.484375 L 8.109375 -15.484375 C 9.003906 -15.484375 9.796875 -15.273438 10.484375 -14.859375 C 11.171875 -14.441406 11.71875 -13.867188 12.125 -13.140625 C 12.53125 -12.421875 12.734375 -11.617188 12.734375 -10.734375 C 12.734375 -9.691406 12.4375 -8.773438 11.84375 -7.984375 C 11.257812 -7.191406 10.515625 -6.65625 9.609375 -6.375 Z M 7.59375 -8.8125 C 8.144531 -8.8125 8.59375 -8.984375 8.9375 -9.328125 C 9.289062 -9.671875 9.46875 -10.109375 9.46875 -10.640625 C 9.46875 -11.171875 9.289062 -11.609375 8.9375 -11.953125 C 8.59375 -12.296875 8.144531 -12.46875 7.59375 -12.46875 L 4.9375 -12.46875 L 4.9375 -8.8125 Z M 7.59375 -8.8125 "/></g></g></g><g fill="#ffffff" fill-opacity="1"><g transform="translate(233.532107, 20.384484)"><g><path d="M 6.296875 0.203125 C 4.941406 0.203125 3.742188 -0.128906 2.703125 -0.796875 C 1.671875 -1.472656 0.90625 -2.289062 0.40625 -3.25 L 3.234375 -5.015625 C 3.523438 -4.410156 3.9375 -3.921875 4.46875 -3.546875 C 5 -3.179688 5.617188 -3 6.328125 -3 C 6.929688 -3 7.398438 -3.125 7.734375 -3.375 C 8.066406 -3.632812 8.234375 -3.984375 8.234375 -4.421875 C 8.234375 -4.867188 8.0625 -5.226562 7.71875 -5.5 C 7.375 -5.769531 6.929688 -6 6.390625 -6.1875 C 5.847656 -6.382812 5.269531 -6.585938 4.65625 -6.796875 C 4.050781 -7.015625 3.476562 -7.296875 2.9375 -7.640625 C 2.394531 -7.984375 1.945312 -8.429688 1.59375 -8.984375 C 1.25 -9.535156 1.078125 -10.25 1.078125 -11.125 C 1.078125 -12.15625 1.316406 -13.003906 1.796875 -13.671875 C 2.285156 -14.347656 2.910156 -14.851562 3.671875 -15.1875 C 4.441406 -15.53125 5.234375 -15.703125 6.046875 -15.703125 C 7.003906 -15.703125 7.894531 -15.5 8.71875 -15.09375 C 9.550781 -14.6875 10.25 -14.15625 10.8125 -13.5 L 8.546875 -11.328125 C 8.171875 -11.765625 7.765625 -12.097656 7.328125 -12.328125 C 6.898438 -12.554688 6.460938 -12.671875 6.015625 -12.671875 C 5.597656 -12.671875 5.242188 -12.566406 4.953125 -12.359375 C 4.660156 -12.160156 4.515625 -11.835938 4.515625 -11.390625 C 4.515625 -10.941406 4.6875 -10.585938 5.03125 -10.328125 C 5.375 -10.066406 5.816406 -9.84375 6.359375 -9.65625 C 6.898438 -9.46875 7.472656 -9.257812 8.078125 -9.03125 C 8.679688 -8.8125 9.253906 -8.519531 9.796875 -8.15625 C 10.335938 -7.789062 10.78125 -7.3125 11.125 -6.71875 C 11.46875 -6.125 11.640625 -5.347656 11.640625 -4.390625 C 11.640625 -3.421875 11.394531 -2.59375 10.90625 -1.90625 C 10.414062 -1.21875 9.765625 -0.691406 8.953125 -0.328125 C 8.148438 0.0234375 7.265625 0.203125 6.296875 0.203125 Z M 6.296875 0.203125 "/></g></g></g><g fill="#ffffff" fill-opacity="1"><g transform="translate(249.904042, 20.384484)"><g><path d="M 10.96875 -12.5 L 5.0625 -12.5 L 5.0625 -9.25 L 10.125 -9.25 L 10.125 -6.25 L 5.0625 -6.25 L 5.0625 -3 L 10.96875 -3 L 10.96875 0 L 1.65625 0 L 1.65625 -15.484375 L 10.96875 -15.484375 Z M 10.96875 -12.5 "/></g></g></g><g fill="#ffffff" fill-opacity="1"><g transform="translate(266.069394, 20.384484)"><g><path d="M 4.9375 -3.015625 L 10.0625 -3.015625 L 10.0625 0 L 1.515625 0 L 1.515625 -15.484375 L 4.9375 -15.484375 Z M 4.9375 -3.015625 "/></g></g></g><g fill="#ffffff" fill-opacity="1"><g transform="translate(280.323826, 20.384484)"><g><path d="M 10.96875 -12.5 L 5.0625 -12.5 L 5.0625 -9.25 L 10.125 -9.25 L 10.125 -6.25 L 5.0625 -6.25 L 5.0625 0 L 1.65625 0 L 1.65625 -15.484375 L 10.96875 -15.484375 Z M 10.96875 -12.5 "/></g></g></g><g fill="#ffffff" fill-opacity="1"><g transform="translate(295.688648, 20.384484)"><g/></g></g><g fill="#ffffff" fill-opacity="1"><g transform="translate(306.017958, 20.384484)"><g><path d="M 1.65625 0 L 1.65625 -15.484375 L 5.0625 -15.484375 L 5.0625 0 Z M 1.65625 0 "/></g></g></g><g fill="#ffffff" fill-opacity="1"><g transform="translate(316.837912, 20.384484)"><g><path d="M 12.65625 -15.484375 L 16.03125 -15.484375 L 16.03125 0 L 12.515625 0 L 4.9375 -10.28125 L 4.9375 0 L 1.515625 0 L 1.515625 -15.484375 L 5.03125 -15.484375 L 12.65625 -5.234375 Z M 12.65625 -15.484375 "/></g></g></g><g fill="#ffffff" fill-opacity="1"><g transform="translate(338.55522, 20.384484)"><g/></g></g><g fill="#ffffff" fill-opacity="1"><g transform="translate(348.88453, 20.384484)"><g><path d="M 11.078125 -15.484375 L 11.078125 -12.46875 L 7.171875 -12.46875 L 7.171875 0 L 3.796875 0 L 3.796875 -12.46875 L -0.125 -12.46875 L -0.125 -15.484375 Z M 11.078125 -15.484375 "/></g></g></g><g fill="#ffffff" fill-opacity="1"><g transform="translate(363.965292, 20.384484)"><g><path d="M 11.234375 -15.484375 L 14.609375 -15.484375 L 14.609375 0 L 11.234375 0 L 11.234375 -6.25 L 4.9375 -6.25 L 4.9375 0 L 1.515625 0 L 1.515625 -15.484375 L 4.9375 -15.484375 L 4.9375 -9.265625 L 11.234375 -9.265625 Z M 11.234375 -15.484375 "/></g></g></g><g fill="#ffffff" fill-opacity="1"><g transform="translate(384.262322, 20.384484)"><g><path d="M 10.96875 -12.5 L 5.0625 -12.5 L 5.0625 -9.25 L 10.125 -9.25 L 10.125 -6.25 L 5.0625 -6.25 L 5.0625 -3 L 10.96875 -3 L 10.96875 0 L 1.65625 0 L 1.65625 -15.484375 L 10.96875 -15.484375 Z M 10.96875 -12.5 "/></g></g></g><g fill="#ffffff" fill-opacity="1"><g transform="translate(400.427675, 20.384484)"><g/></g></g><g fill="#ffffff" fill-opacity="1"><g transform="translate(410.756985, 20.384484)"><g><path d="M 8.90625 0.203125 C 7.800781 0.203125 6.769531 0 5.8125 -0.40625 C 4.863281 -0.820312 4.019531 -1.394531 3.28125 -2.125 C 2.550781 -2.863281 1.976562 -3.707031 1.5625 -4.65625 C 1.15625 -5.613281 0.953125 -6.644531 0.953125 -7.75 C 0.953125 -8.851562 1.15625 -9.878906 1.5625 -10.828125 C 1.976562 -11.785156 2.550781 -12.628906 3.28125 -13.359375 C 4.019531 -14.085938 4.863281 -14.660156 5.8125 -15.078125 C 6.769531 -15.492188 7.800781 -15.703125 8.90625 -15.703125 C 10.4375 -15.703125 11.828125 -15.304688 13.078125 -14.515625 C 14.335938 -13.734375 15.296875 -12.707031 15.953125 -11.4375 L 13.015625 -9.921875 C 12.640625 -10.660156 12.085938 -11.253906 11.359375 -11.703125 C 10.640625 -12.148438 9.820312 -12.375 8.90625 -12.375 C 8.039062 -12.375 7.257812 -12.171875 6.5625 -11.765625 C 5.875 -11.359375 5.328125 -10.804688 4.921875 -10.109375 C 4.515625 -9.410156 4.3125 -8.625 4.3125 -7.75 C 4.3125 -6.863281 4.515625 -6.070312 4.921875 -5.375 C 5.328125 -4.6875 5.875 -4.140625 6.5625 -3.734375 C 7.257812 -3.328125 8.039062 -3.125 8.90625 -3.125 C 9.820312 -3.125 10.640625 -3.347656 11.359375 -3.796875 C 12.085938 -4.242188 12.640625 -4.835938 13.015625 -5.578125 L 15.953125 -4.046875 C 15.296875 -2.796875 14.335938 -1.773438 13.078125 -0.984375 C 11.828125 -0.191406 10.4375 0.203125 8.90625 0.203125 Z M 8.90625 0.203125 "/></g></g></g><g fill="#ffffff" fill-opacity="1"><g transform="translate(431.518833, 20.384484)"><g><path d="M 1.65625 0 L 1.65625 -15.484375 L 5.0625 -15.484375 L 5.0625 0 Z M 1.65625 0 "/></g></g></g><g fill="#ffffff" fill-opacity="1"><g transform="translate(442.338786, 20.384484)"><g><path d="M 12.65625 -15.484375 L 16.03125 -15.484375 L 16.03125 0 L 12.515625 0 L 4.9375 -10.28125 L 4.9375 0 L 1.515625 0 L 1.515625 -15.484375 L 5.03125 -15.484375 L 12.65625 -5.234375 Z M 12.65625 -15.484375 "/></g></g></g><g fill="#ffffff" fill-opacity="1"><g transform="translate(464.056094, 20.384484)"><g><path d="M 10.96875 -12.5 L 5.0625 -12.5 L 5.0625 -9.25 L 10.125 -9.25 L 10.125 -6.25 L 5.0625 -6.25 L 5.0625 -3 L 10.96875 -3 L 10.96875 0 L 1.65625 0 L 1.65625 -15.484375 L 10.96875 -15.484375 Z M 10.96875 -12.5 "/></g></g></g><g fill="#ffffff" fill-opacity="1"><g transform="translate(480.221447, 20.384484)"><g><path d="M 15.03125 -15.484375 L 18.6875 -15.484375 L 18.6875 0 L 15.28125 0 L 15.28125 -9.21875 L 11.078125 0 L 9.109375 0 L 4.9375 -9.25 L 4.9375 0 L 1.515625 0 L 1.515625 -15.484375 L 5.21875 -15.484375 L 10.09375 -4.78125 Z M 15.03125 -15.484375 "/></g></g></g><g fill="#ffffff" fill-opacity="1"><g transform="translate(504.572729, 20.384484)"><g><path d="M 11 0 L 10.046875 -2.921875 L 4.265625 -2.921875 L 3.3125 0 L -0.328125 0 L 5.234375 -15.484375 L 9.0625 -15.484375 L 14.640625 0 Z M 5.15625 -5.765625 L 9.140625 -5.765625 L 7.15625 -11.90625 Z M 5.15625 -5.765625 "/></g></g></g><g fill="#ffffff" fill-opacity="1"><g transform="translate(523.010516, 20.384484)"><g><path d="M 11.078125 -15.484375 L 11.078125 -12.46875 L 7.171875 -12.46875 L 7.171875 0 L 3.796875 0 L 3.796875 -12.46875 L -0.125 -12.46875 L -0.125 -15.484375 Z M 11.078125 -15.484375 "/></g></g></g><g fill="#ffffff" fill-opacity="1"><g transform="translate(538.091277, 20.384484)"><g><path d="M 1.65625 0 L 1.65625 -15.484375 L 5.0625 -15.484375 L 5.0625 0 Z M 1.65625 0 "/></g></g></g><g fill="#ffffff" fill-opacity="1"><g transform="translate(548.911205, 20.384484)"><g><path d="M 8.90625 0.203125 C 7.800781 0.203125 6.769531 0 5.8125 -0.40625 C 4.863281 -0.820312 4.019531 -1.394531 3.28125 -2.125 C 2.550781 -2.863281 1.976562 -3.707031 1.5625 -4.65625 C 1.15625 -5.613281 0.953125 -6.644531 0.953125 -7.75 C 0.953125 -8.851562 1.15625 -9.878906 1.5625 -10.828125 C 1.976562 -11.785156 2.550781 -12.628906 3.28125 -13.359375 C 4.019531 -14.085938 4.863281 -14.660156 5.8125 -15.078125 C 6.769531 -15.492188 7.800781 -15.703125 8.90625 -15.703125 C 10.4375 -15.703125 11.828125 -15.304688 13.078125 -14.515625 C 14.335938 -13.734375 15.296875 -12.707031 15.953125 -11.4375 L 13.015625 -9.921875 C 12.640625 -10.660156 12.085938 -11.253906 11.359375 -11.703125 C 10.640625 -12.148438 9.820312 -12.375 8.90625 -12.375 C 8.039062 -12.375 7.257812 -12.171875 6.5625 -11.765625 C 5.875 -11.359375 5.328125 -10.804688 4.921875 -10.109375 C 4.515625 -9.410156 4.3125 -8.625 4.3125 -7.75 C 4.3125 -6.863281 4.515625 -6.070312 4.921875 -5.375 C 5.328125 -4.6875 5.875 -4.140625 6.5625 -3.734375 C 7.257812 -3.328125 8.039062 -3.125 8.90625 -3.125 C 9.820312 -3.125 10.640625 -3.347656 11.359375 -3.796875 C 12.085938 -4.242188 12.640625 -4.835938 13.015625 -5.578125 L 15.953125 -4.046875 C 15.296875 -2.796875 14.335938 -1.773438 13.078125 -0.984375 C 11.828125 -0.191406 10.4375 0.203125 8.90625 0.203125 Z M 8.90625 0.203125 "/></g></g></g><g fill="#ffffff" fill-opacity="1"><g transform="translate(225.797625, 46.204385)"><g><path d="M 7.875 0.203125 C 6.664062 0.203125 5.578125 -0.0195312 4.609375 -0.46875 C 3.640625 -0.925781 2.867188 -1.546875 2.296875 -2.328125 C 1.734375 -3.117188 1.453125 -3.992188 1.453125 -4.953125 L 1.453125 -15.484375 L 4.859375 -15.484375 L 4.859375 -5.609375 C 4.859375 -4.816406 5.148438 -4.148438 5.734375 -3.609375 C 6.316406 -3.078125 7.03125 -2.8125 7.875 -2.8125 C 8.738281 -2.8125 9.460938 -3.078125 10.046875 -3.609375 C 10.628906 -4.148438 10.921875 -4.816406 10.921875 -5.609375 L 10.921875 -15.484375 L 14.328125 -15.484375 L 14.328125 -4.953125 C 14.328125 -3.992188 14.039062 -3.117188 13.46875 -2.328125 C 12.90625 -1.546875 12.132812 -0.925781 11.15625 -0.46875 C 10.1875 -0.0195312 9.09375 0.203125 7.875 0.203125 Z M 7.875 0.203125 "/></g></g></g><g fill="#ffffff" fill-opacity="1"><g transform="translate(245.70732, 46.204385)"><g><path d="M 12.65625 -15.484375 L 16.03125 -15.484375 L 16.03125 0 L 12.515625 0 L 4.9375 -10.28125 L 4.9375 0 L 1.515625 0 L 1.515625 -15.484375 L 5.03125 -15.484375 L 12.65625 -5.234375 Z M 12.65625 -15.484375 "/></g></g></g><g fill="#ffffff" fill-opacity="1"><g transform="translate(267.424631, 46.204385)"><g><path d="M 1.65625 0 L 1.65625 -15.484375 L 5.0625 -15.484375 L 5.0625 0 Z M 1.65625 0 "/></g></g></g><g fill="#ffffff" fill-opacity="1"><g transform="translate(278.244585, 46.204385)"><g><path d="M 10.84375 -15.484375 L 14.640625 -15.484375 L 9.0625 0 L 5.234375 0 L -0.328125 -15.484375 L 3.453125 -15.484375 L 7.15625 -4.421875 Z M 10.84375 -15.484375 "/></g></g></g><g fill="#ffffff" fill-opacity="1"><g transform="translate(296.682359, 46.204385)"><g><path d="M 10.96875 -12.5 L 5.0625 -12.5 L 5.0625 -9.25 L 10.125 -9.25 L 10.125 -6.25 L 5.0625 -6.25 L 5.0625 -3 L 10.96875 -3 L 10.96875 0 L 1.65625 0 L 1.65625 -15.484375 L 10.96875 -15.484375 Z M 10.96875 -12.5 "/></g></g></g><g fill="#ffffff" fill-opacity="1"><g transform="translate(312.847698, 46.204385)"><g><path d="M 9.609375 -6.375 L 13.9375 0 L 10.125 0 L 6.296875 -5.984375 L 4.9375 -5.984375 L 4.9375 0 L 1.515625 0 L 1.515625 -15.484375 L 8.109375 -15.484375 C 9.003906 -15.484375 9.796875 -15.273438 10.484375 -14.859375 C 11.171875 -14.441406 11.71875 -13.867188 12.125 -13.140625 C 12.53125 -12.421875 12.734375 -11.617188 12.734375 -10.734375 C 12.734375 -9.691406 12.4375 -8.773438 11.84375 -7.984375 C 11.257812 -7.191406 10.515625 -6.65625 9.609375 -6.375 Z M 7.59375 -8.8125 C 8.144531 -8.8125 8.59375 -8.984375 8.9375 -9.328125 C 9.289062 -9.671875 9.46875 -10.109375 9.46875 -10.640625 C 9.46875 -11.171875 9.289062 -11.609375 8.9375 -11.953125 C 8.59375 -12.296875 8.144531 -12.46875 7.59375 -12.46875 L 4.9375 -12.46875 L 4.9375 -8.8125 Z M 7.59375 -8.8125 "/></g></g></g><g fill="#ffffff" fill-opacity="1"><g transform="translate(330.794835, 46.204385)"><g><path d="M 6.296875 0.203125 C 4.941406 0.203125 3.742188 -0.128906 2.703125 -0.796875 C 1.671875 -1.472656 0.90625 -2.289062 0.40625 -3.25 L 3.234375 -5.015625 C 3.523438 -4.410156 3.9375 -3.921875 4.46875 -3.546875 C 5 -3.179688 5.617188 -3 6.328125 -3 C 6.929688 -3 7.398438 -3.125 7.734375 -3.375 C 8.066406 -3.632812 8.234375 -3.984375 8.234375 -4.421875 C 8.234375 -4.867188 8.0625 -5.226562 7.71875 -5.5 C 7.375 -5.769531 6.929688 -6 6.390625 -6.1875 C 5.847656 -6.382812 5.269531 -6.585938 4.65625 -6.796875 C 4.050781 -7.015625 3.476562 -7.296875 2.9375 -7.640625 C 2.394531 -7.984375 1.945312 -8.429688 1.59375 -8.984375 C 1.25 -9.535156 1.078125 -10.25 1.078125 -11.125 C 1.078125 -12.15625 1.316406 -13.003906 1.796875 -13.671875 C 2.285156 -14.347656 2.910156 -14.851562 3.671875 -15.1875 C 4.441406 -15.53125 5.234375 -15.703125 6.046875 -15.703125 C 7.003906 -15.703125 7.894531 -15.5 8.71875 -15.09375 C 9.550781 -14.6875 10.25 -14.15625 10.8125 -13.5 L 8.546875 -11.328125 C 8.171875 -11.765625 7.765625 -12.097656 7.328125 -12.328125 C 6.898438 -12.554688 6.460938 -12.671875 6.015625 -12.671875 C 5.597656 -12.671875 5.242188 -12.566406 4.953125 -12.359375 C 4.660156 -12.160156 4.515625 -11.835938 4.515625 -11.390625 C 4.515625 -10.941406 4.6875 -10.585938 5.03125 -10.328125 C 5.375 -10.066406 5.816406 -9.84375 6.359375 -9.65625 C 6.898438 -9.46875 7.472656 -9.257812 8.078125 -9.03125 C 8.679688 -8.8125 9.253906 -8.519531 9.796875 -8.15625 C 10.335938 -7.789062 10.78125 -7.3125 11.125 -6.71875 C 11.46875 -6.125 11.640625 -5.347656 11.640625 -4.390625 C 11.640625 -3.421875 11.394531 -2.59375 10.90625 -1.90625 C 10.414062 -1.21875 9.765625 -0.691406 8.953125 -0.328125 C 8.148438 0.0234375 7.265625 0.203125 6.296875 0.203125 Z M 6.296875 0.203125 "/></g></g></g><g fill="#ffffff" fill-opacity="1"><g transform="translate(347.166757, 46.204385)"><g><path d="M 10.96875 -12.5 L 5.0625 -12.5 L 5.0625 -9.25 L 10.125 -9.25 L 10.125 -6.25 L 5.0625 -6.25 L 5.0625 -3 L 10.96875 -3 L 10.96875 0 L 1.65625 0 L 1.65625 -15.484375 L 10.96875 -15.484375 Z M 10.96875 -12.5 "/></g></g></g></svg>